<mxfile host="app.diagrams.net" modified="2023-04-24T15:23:14.070Z" agent="Mozilla/5.0 (Windows NT 10.0; Win64; x64) AppleWebKit/537.36 (KHTML, like Gecko) Chrome/112.0.0.0 Safari/537.36" etag="bOcAYvg0Z7J9zMoIcfoD" version="21.2.1" type="github">
  <diagram name="Page-1" id="e3a06f82-3646-2815-327d-82caf3d4e204">
    <mxGraphModel dx="956" dy="536" grid="1" gridSize="10" guides="1" tooltips="1" connect="1" arrows="1" fold="1" page="1" pageScale="1.5" pageWidth="1169" pageHeight="826" background="none" math="0" shadow="0">
      <root>
        <mxCell id="0" style=";html=1;" />
        <mxCell id="1" style=";html=1;" parent="0" />
        <mxCell id="fsJcQq7HWgbH1uvb0fze-1" value="配信サーバー" style="image;points=[];aspect=fixed;html=1;align=center;shadow=0;dashed=0;image=img/lib/allied_telesis/computer_and_terminals/Server_Desktop.svg;" vertex="1" parent="1">
          <mxGeometry x="866.4000000000001" y="350" width="42.599999999999994" height="54" as="geometry" />
        </mxCell>
        <mxCell id="fsJcQq7HWgbH1uvb0fze-2" value="Webサーバー" style="image;points=[];aspect=fixed;html=1;align=center;shadow=0;dashed=0;image=img/lib/allied_telesis/computer_and_terminals/Server_Desktop.svg;" vertex="1" parent="1">
          <mxGeometry x="782.2" y="350" width="42.599999999999994" height="54" as="geometry" />
        </mxCell>
        <mxCell id="fsJcQq7HWgbH1uvb0fze-3" value="セッションサーバー" style="image;points=[];aspect=fixed;html=1;align=center;shadow=0;dashed=0;image=img/lib/allied_telesis/computer_and_terminals/Server_Desktop.svg;" vertex="1" parent="1">
          <mxGeometry x="970" y="350" width="42.599999999999994" height="54" as="geometry" />
        </mxCell>
        <mxCell id="fsJcQq7HWgbH1uvb0fze-4" value="CDN" style="image;points=[];aspect=fixed;html=1;align=center;shadow=0;dashed=0;image=img/lib/allied_telesis/computer_and_terminals/Server_Desktop.svg;" vertex="1" parent="1">
          <mxGeometry x="1060" y="350" width="42.599999999999994" height="54" as="geometry" />
        </mxCell>
        <mxCell id="fsJcQq7HWgbH1uvb0fze-8" value="&#xa;&#xa;&#xa;ユーザー" style="group" vertex="1" connectable="0" parent="1">
          <mxGeometry x="896" y="480" width="74" height="42.60000000000002" as="geometry" />
        </mxCell>
        <mxCell id="fsJcQq7HWgbH1uvb0fze-5" value="" style="image;points=[];aspect=fixed;html=1;align=center;shadow=0;dashed=0;image=img/lib/allied_telesis/computer_and_terminals/Laptop.svg;" vertex="1" parent="fsJcQq7HWgbH1uvb0fze-8">
          <mxGeometry width="42" height="42.599999999999994" as="geometry" />
        </mxCell>
        <mxCell id="fsJcQq7HWgbH1uvb0fze-6" value="" style="outlineConnect=0;dashed=0;verticalLabelPosition=bottom;verticalAlign=top;align=center;html=1;shape=mxgraph.aws3.mobile_client;fillColor=#D2D3D3;gradientColor=none;" vertex="1" parent="fsJcQq7HWgbH1uvb0fze-8">
          <mxGeometry x="57" y="12.600000000000023" width="17" height="30" as="geometry" />
        </mxCell>
      </root>
    </mxGraphModel>
  </diagram>
</mxfile>
